<?xml version="1.0" encoding="utf-8"?>
<!-- Generator: Adobe Illustrator 19.0.1, SVG Export Plug-In . SVG Version: 6.00 Build 0)  -->
<svg version="1.1" id="holidays" xmlns="http://www.w3.org/2000/svg" xmlns:xlink="http://www.w3.org/1999/xlink" x="0px" y="0px"
	 viewBox="0 0 128 128" style="enable-background:new 0 0 128 128;" xml:space="preserve">
<style type="text/css">
	.st0{display:none;}
	.st1{display:inline;}
	.st2{fill:#0C0C0C;}
	.st3{display:inline;fill:#0C0C0C;}
	.st4{font-family:'Helvetica';}
	.st5{font-size:23.847px;}
	.st6{font-family:'Helvetica-Bold';}
	.st7{font-size:26.9402px;}
</style>
<g id="Sun" class="st0">
	<g class="st1">
		<path class="st2" d="M64,32.6c-17.3,0-31.4,14-31.4,31.4s14,31.4,31.4,31.4c17.3,0,31.4-14,31.4-31.4S81.3,32.6,64,32.6z M64,92.9
			c-15.9,0-28.9-12.9-28.9-28.9S48.1,35.1,64,35.1c15.9,0,28.9,12.9,28.9,28.9S79.9,92.9,64,92.9z M102.7,78.4l25.3-4l-22.9-12.6
			l21.5-13.8l-26.1-2.4l14.1-21.3l-26.1,9.1l4.2-26.7L72.3,27.1L64.3,0l-9,24.6l-17-19.1l1.7,26.1L16.7,20.9l12,23.2L3.2,43.7
			l20.4,16.4L0,70.1l25.3,6.8L7.7,95.5l25.9-3.9L25,115.6l22.1-14l1.8,25.5l14.6-21.7L75.4,128l4.6-25.8l20,15.9l-6.2-25.4l24.7,6.5
			L102.7,78.4z M64,101c-20.5,0-37.1-16.6-37.1-37S43.5,27,64,27c20.5,0,37.1,16.6,37.1,37S84.5,101,64,101z"/>
	</g>
</g>
<g id="tent" class="st0">
	<g class="st1">
		<path class="st2" d="M123.1,89l4.9-8.4l-6.1-2.3l-0.5,1.7c-2.5-1.3-9.3-5.1-17.3-12C88.7,54.8,69.8,35.1,65.6,30.8l-0.9-1.3
			l-0.5,0.7c-2.4,2.3-24.7,24-41.2,38.2C15.6,74.9,9.2,78.6,6.3,80.2l-0.3-1L0,81.5l6.4,11.2v0h0l3.4,5.9l1.5-0.6l-1.5-5.3h108
			l-1.2,4.3l1.5,0.6l2.8-4.8h2.1V89z M86.7,87.8L66.4,58.3V38.1l42.5,49.7H86.7z M21.4,87.8l41.8-49.6v19.4L41.7,87.8H21.4z
			 M64.6,61.2l18.3,26.6H45.6L64.6,61.2z M6.8,81.7c2.8-1.5,9.7-5.5,17.9-12.6C35.7,59.7,49.2,47,57.5,39L15.1,87.8H8.5L6.8,81.7z
			 M114.8,87.8l0.2-0.2L78.4,46.1c7.2,7.2,16.1,15.8,24.2,22.7c8.8,7.5,16.2,11.6,18.4,12.8l-1.8,6.2H114.8z"/>
	</g>
</g>
<g id="starfish" class="st0">
	<g class="st1">
		<path class="st2" d="M128,49.5c-1.1-4.7-42.9-8.3-42.9-8.3S68.1,2.6,64,2.6c-4.1,0-21.1,38.5-21.1,38.5S0.5,46.7,0,49.5
			c-0.5,2.8,29.9,32.1,29.9,32.1s-8.2,42.2-5.4,43.7c2.8,1.5,39.5-18.7,39.5-18.7s36.6,20.5,39.5,18.7c3-1.8-5.4-43.7-5.4-43.7
			S129,54.8,128,49.5z M92.4,79.5c-1.1,2.9,5.8,33.8,4.5,35.1c-1.3,1.3-30.7-15-33-15c-2.3,0-31.2,16.2-33,15
			c-1.8-1.1,6.3-33.1,6.3-34.7s-24.6-23.7-24-26.7c0.7-2.9,33.1-6.3,33.1-6.3s15.3-31,17.6-31c2.3,0,17.6,31,17.6,31
			s35.8,5.4,35.8,6.7C117.3,54.9,93.6,76.5,92.4,79.5z M62.7,63.9c-3.7,0-6.7,3-6.7,6.7c0,3.7,3,6.7,6.7,6.7s6.7-3,6.7-6.7
			C69.3,66.9,66.3,63.9,62.7,63.9z M61.3,58.6c2.9,0,5.3-2.4,5.3-5.3c0-2.9-2.4-5.3-5.3-5.3c-2.9,0-5.3,2.4-5.3,5.3
			C56,56.2,58.4,58.6,61.3,58.6z M50.7,77.3c-2.9,0-5.3,2.4-5.3,5.3c0,2.9,2.4,5.3,5.3,5.3s5.3-2.4,5.3-5.3
			C56,79.7,53.6,77.3,50.7,77.3z M74.7,74.6c-2.9,0-5.3,2.4-5.3,5.3c0,2.9,2.4,5.3,5.3,5.3c2.9,0,5.3-2.4,5.3-5.3
			C80,77,77.6,74.6,74.7,74.6z M77.3,66.6c2.9,0,5.3-2.4,5.3-5.3c0-2.9-2.4-5.3-5.3-5.3c-2.9,0-5.3,2.4-5.3,5.3
			C72,64.2,74.4,66.6,77.3,66.6z M48,69.3c2.9,0,5.3-2.4,5.3-5.3c0-2.9-2.4-5.3-5.3-5.3c-2.9,0-5.3,2.4-5.3,5.3
			C42.7,66.9,45,69.3,48,69.3z M64,32c1.5,0,2.7-1.2,2.7-2.7s-1.2-2.7-2.7-2.7c-1.5,0-2.7,1.2-2.7,2.7S62.5,32,64,32z M62.7,45.3
			c2.2,0,4-1.8,4-4c0-2.2-1.8-4-4-4c-2.2,0-4,1.8-4,4C58.7,43.5,60.4,45.3,62.7,45.3z M103.6,54.7c-1.4,0.3-2.4,1.7-2.1,3.1
			c0.3,1.4,1.7,2.4,3.1,2.1c1.4-0.3,2.4-1.7,2.1-3.1C106.4,55.3,105,54.4,103.6,54.7z M91.3,54.4c-2.2,0.4-3.6,2.5-3.1,4.7
			c0.4,2.2,2.5,3.6,4.7,3.1c2.2-0.4,3.6-2.5,3.1-4.7C95.6,55.4,93.5,54,91.3,54.4z M38.2,102.8c-1.3-0.7-2.9-0.2-3.6,1.1
			c-0.7,1.3-0.2,2.9,1.1,3.6c1.3,0.7,2.9,0.2,3.6-1.1C40,105.1,39.5,103.5,38.2,102.8z M45.8,91.8c-1.9-1.1-4.4-0.4-5.4,1.6
			c-1.1,1.9-0.4,4.4,1.6,5.4c1.9,1.1,4.4,0.4,5.4-1.6C48.5,95.2,47.8,92.8,45.8,91.8z M21.9,55.1c-1.5-0.2-2.8,0.8-3,2.3
			c-0.2,1.5,0.8,2.8,2.3,3c1.5,0.2,2.8-0.8,3-2.3C24.4,56.6,23.4,55.3,21.9,55.1z M33.8,56.7c-2.2-0.3-4.2,1.2-4.5,3.4
			c-0.3,2.2,1.2,4.2,3.4,4.5c2.2,0.3,4.2-1.2,4.5-3.4C37.5,59.1,36,57,33.8,56.7z M88,101.3c-1.2,0.9-1.4,2.5-0.6,3.7
			c0.9,1.2,2.5,1.4,3.7,0.6c1.2-0.9,1.4-2.5,0.6-3.7C90.8,100.6,89.1,100.4,88,101.3z M86.7,90.6c-1.3-1.8-3.8-2.1-5.6-0.8
			c-1.8,1.3-2.1,3.8-0.8,5.6c1.3,1.8,3.8,2.1,5.6,0.8C87.6,94.9,88,92.4,86.7,90.6z"/>
	</g>
</g>
<g id="passport_1_" class="st0">
	<g id="icon_3_" class="st1">
		<g>
			<path class="st2" d="M50.9,83.1c0.8,0.2,1.6,0.2,2.3,0.2V72.2c-2.4,0.2-5,0.7-7.5,1.6C47.1,77.1,48.8,80.3,50.9,83.1z M45.7,47
				c2.4,0.9,5.1,1.5,7.6,1.6V37.5c-0.7,0-1.5,0.1-2.3,0.2C48.9,40.5,47.1,43.6,45.7,47z M45,72c2.8-1.2,5.7-1.9,8.2-2.1v-8.4H42.7
				C42.8,64.9,43.7,68.4,45,72z M42.7,59.3h10.5v-8.4c-2.5-0.1-5.4-0.9-8.2-2.1C43.7,52.3,42.8,55.8,42.7,59.3z M40.5,61.5h-9
				c0.2,5.6,2.3,10.5,5.7,14.3c1.6-1.1,3.6-2.2,5.8-3.1C41.4,68.7,40.5,64.6,40.5,61.5z M43,48.1c-2.2-1-4.2-2-5.8-3.1
				c-3.4,3.8-5.5,8.7-5.7,14.3h9C40.6,56.1,41.5,52.1,43,48.1z M48,38.4c-3.5,0.9-6.6,2.7-9.2,5c1.3,1,3,1.9,5,2.7
				C44.8,43.4,46.3,40.6,48,38.4z M69.9,43.5c-2.6-2.4-5.7-4.1-9.2-5c1.6,2.2,3.1,5,4.2,7.8C66.8,45.4,68.6,44.4,69.9,43.5z
				 M38.8,77.4c2.6,2.4,5.7,4.1,9.2,5c-1.7-2.3-3.1-5-4.2-7.8C41.9,75.4,40.2,76.3,38.8,77.4z M60.7,82.3c3.5-0.8,6.6-2.6,9.2-5
				c-1.4-1-3.1-2-5-2.8C63.8,77.4,62.4,80,60.7,82.3z M65.7,48.1c1.5,4,2.4,8,2.5,11.2h9c-0.2-5.6-2.3-10.5-5.7-14.3
				C69.9,46.1,67.9,47.2,65.7,48.1z M57.7,37.8c-0.8-0.2-1.6-0.2-2.3-0.2v11.1c2.4-0.2,5.1-0.7,7.6-1.6
				C61.6,43.6,59.7,40.5,57.7,37.8z M65.7,72.7c2.2,1,4.2,2,5.8,3.1c3.4-3.8,5.5-8.7,5.7-14.3h-9C68.1,64.6,67.2,68.7,65.7,72.7z
				 M114.1,7.4L42.9,0c-2.9-0.3-5.5,1.8-5.8,4.7l-1.2,11.9H18.5c-2.9,0-5.3,2.4-5.3,5.3v100.7c0,2.9,2.4,5.3,5.3,5.3h71.6
				c2.9,0,5.3-2.4,5.3-5.3v-8l7.4,0.8c2.9,0.3,5.5-1.8,5.8-4.7l10.1-97.5C119.1,10.3,117,7.7,114.1,7.4z M54.3,85.6
				c-14.1,0-25.2-11.1-25.2-25.2s11.1-25.2,25.2-25.2c14.1,0,25.2,11.1,25.2,25.2S68.4,85.6,54.3,85.6z M113.3,15.3l-9.6,92.2
				c-0.1,1.5-1.5,2.5-2.9,2.4l-5.4-0.6V22c0-2.9-2.4-5.3-5.3-5.3H41.2L42.1,8c0.2-1.5,1.5-2.5,2.9-2.4l65.9,6.8
				C112.4,12.6,113.4,13.9,113.3,15.3z M63.7,48.9c-2.8,1.2-5.7,1.9-8.2,2.1v8.4H66C65.8,55.8,65,52.3,63.7,48.9z M55.4,72.2v11.1
				c0.7,0,1.5-0.1,2.3-0.2c2.1-2.7,3.9-6,5.2-9.3C60.4,72.9,57.8,72.3,55.4,72.2z M66,61.5H55.4v8.4c2.5,0.1,5.4,0.9,8.2,2.1
				C65,68.4,65.8,64.9,66,61.5z"/>
		</g>
	</g>
	<text transform="matrix(1.0003 0 0 1 23.8467 114.7364)" class="st3 st4 st5">PASS</text>
</g>
<g id="Life_Preserver" class="st0">
	<g class="st1">
		<path class="st2" d="M123,50.7c-5.7-21.9-23.6-38.9-46-43.3L78,0H50l1.1,8C30,13.3,13.3,30,8,51.1L0,50V78L7.4,77
			c4.4,22.4,21.4,40.3,43.3,46l-0.7,5H78l-0.6-4.3c23.2-4.7,41.5-23,46.2-46.2L128,78V50L123,50.7z M76.1,13.6
			c19.7,4,35.4,18.8,40.7,38L98,54.2c-3.8-11-13.1-19.4-24.5-22.1L76.1,13.6z M52,14.3L54.7,33C44.5,36.4,36.4,44.5,33,54.7L14.2,52
			C19.1,33.6,33.6,19.1,52,14.3z M51.6,116.7c-19.2-5.2-34-21-38-40.6l18.6-2.7C34.8,84.9,43.3,94.1,54.2,98L51.6,116.7z M71.8,84.3
			H56.2l-1.1,7.4c-8.2-3.3-14.5-10.4-16.8-19.1l5.3-0.8V56.2l-4.4-0.6c2.8-7.5,8.8-13.4,16.3-16.3l0.6,4.4h15.6l0.8-5.4
			c8.7,2.2,15.8,8.6,19.1,16.8l-7.3,1v15.6l8.4,1.2C90,82.5,82.5,90,73,92.6L71.8,84.3z M76.5,117.5l-2.7-18.6
			c12.3-3.1,21.9-12.7,25-25l18.6,2.7C113.2,97,97,113.2,76.5,117.5z"/>
	</g>
</g>
<g id="hotel_1_" class="st0">
	<g id="icon_5_" class="st1">
		<g>
			<path class="st2" d="M121.3,33.7H6.7c-3.7,0-6.7,3-6.7,6.7v47.1c0,3.7,3,6.7,6.7,6.7h114.5c3.7,0,6.7-3,6.7-6.7V40.4
				C128,36.7,125,33.7,121.3,33.7z M123.5,85.3c0,2.5-2,4.5-4.5,4.5H9c-2.5,0-4.5-2-4.5-4.5V42.7c0-2.5,2-4.5,4.5-4.5h110
				c2.5,0,4.5,2,4.5,4.5V85.3z"/>
		</g>
	</g>
	<text transform="matrix(1.0003 0 0 1 17.9658 74.1036)" class="st3 st6 st7">HOTEL</text>
</g>
<g id="fire" class="st0">
	<g class="st1">
		<path class="st2" d="M109.6,90.9l-8.2-9.8L65.3,97.2L25.8,80.8l-5.3,12.5l27.7,11.5l-29.8,13.3l8.2,9.8l37.3-16.6l38.5,16
			l5.3-12.5l-26.6-11.1L109.6,90.9z M64,87.1c1.1-5.3,4.8-11.7,8.8-16.6c1.8-2.4,6.8-7.9,8.4-10.8c2-3.5,4.4-6.9,4.4-17.9
			C85.6,27,75.7,6,70.2,0c0,8-2.2,12.6-6,17.9c-2.7,3.5-17,22.3-17,35.8C47.1,72,55.9,81.1,64,87.1z M90.3,48.8
			c-0.4,6-7.5,16.6-12.6,22.5c-2,2.2-6,8.4-6,11c0,1.6-0.5,2.7,0,4.4c5.9-3.1,12.1-3.1,17-5.5c3.5-1.6,9.5-7.1,10.6-12.4
			c4-14.6-2.7-33-10.1-39.1C90.9,38.4,90.7,45.3,90.3,48.8z M57,86.6c-4.9-3.5-12.3-9-14.1-18.1c-0.4-3.1-1.1-7.1-0.9-11.7
			c0.2-4.8,0.7-9.5,1.8-13c-7.5,6-11,14.2-11,21.2C32.8,72,38.1,86.4,57,86.6z"/>
	</g>
</g>
<g id="sunglasses" class="st0">
	<g class="st1">
		<path class="st2" d="M76.5,63.3c0,9.5,5,15.2,17.2,14.7c10.6-0.4,19.6-10.3,19.6-17.2c0-1.7,0-9.8,0-9.8s-6.8-2.5-14.7-2.5
			C87.1,48.5,76.5,55.1,76.5,63.3z M27.5,48.5c-9.1,0-14.7,2.5-14.7,2.5s0,8.7,0,9.8c0.2,5.3,9,16.7,19.6,17.2
			c12.2,0.5,17.2-5.2,17.2-14.7C49.5,55.1,39,48.5,27.5,48.5z M127,80.5l-9.6-7.1c4.6-7.5,5.8-15,5.8-15V46.1c0,0-11.3-6.8-22.1-7.4
			C89.8,38.1,79,46.1,79,46.1l-12.3,7.4h-7.4c0,0-13.5-13-27-14.7c-14.6-1.9-29.4,7.4-29.4,7.4v12.3c0,0,2.1,8.4,7.2,16.3L1,81.8
			c0,0-1.9,4.6-0.6,6c1.2,1.2,5.7,1.8,5.7,1.8l9.9-7.8c3.7,3.4,8.3,5.8,13.9,6c25.9,0.9,29.4-24.5,29.4-24.5h4.9
			c0,0,7.4,27.8,31.9,24.5c6.7-0.9,11.8-3.8,15.6-7.5l10.1,7.4c0,0,4.5-0.5,5.7-1.7C128.9,84.8,127,80.5,127,80.5z M54.5,65.7
			c-1.1,9.4-9.3,17.2-20.9,17.2c-9.9,0-22.2-6.6-25.1-21.5c-0.5-2.4-0.7-5.1-0.6-8c0.2-9.5,10.6-9.8,22.1-9.8S56.1,51.4,54.5,65.7z
			 M92.6,82.9c-11.5,0-19.7-7.8-20.8-17.2c-1.4-12.2,18.8-21.8,24.4-22.1c9-0.4,21.8,2,22,9.8C118.9,73.9,104,82.9,92.6,82.9z"/>
	</g>
</g>
<g id="surfing_x5F_boat" class="st0">
	<path class="st3" d="M12.3,104.8v-1.3C12.3,103.5,12.2,104,12.3,104.8z M88.5,19.1h-2.7L80.4,30h10.9L88.5,19.1z M94,40.9H74.9
		c0,0-4.4,7.5-8.2,16.3C62.4,67.4,61.3,79,61.3,79h40.8L94,40.9z M88.5,19.1h-2.7L80.4,30h10.9L88.5,19.1z M94,40.9H74.9
		c0,0-4.4,7.5-8.2,16.3C62.4,67.4,61.3,79,61.3,79h40.8L94,40.9z M42,117.1c-25.9,0-29.3-8.9-29.7-12.3v6.9c0,0-2.4,13.6,29.7,13.6
		c57.9,0,73.8,2.7,73.8,2.7v-8.2C115.8,119.8,99.9,117.1,42,117.1z M94,40.9H74.9c0,0-4.4,7.5-8.2,16.3C62.4,67.4,61.3,79,61.3,79
		h40.8L94,40.9z M88.5,19.1h-2.7L80.4,30h10.9L88.5,19.1z"/>
	<path class="st3" d="M89.2,0c0,0-18.9,23.5-29.1,52.4c-9.1,25.7-12.4,64.7-12.4,64.7h8.2c0,0-1.2-3.8,2.7-5.4
		c12.6-5.1,43.5-14.8,49-21.8C118.1,76.6,89.2,0,89.2,0z M88.5,10.9c0,0,2.5,9.7,5.6,21.8H75.4L88.5,10.9z M85.8,95.3
		c-10.6,6-30,8.2-30,8.2s0-6.7,1.3-16.3h44.2C97.7,90,91.9,91.9,85.8,95.3z M105,81.7H57.9c1.2-7.4,3.1-16,6.1-24.5
		c2.3-6.6,8.2-19.1,8.2-19.1h23.4c3.8,15.2,8.1,32.1,9.3,38.1C105.3,78.4,105.3,80.2,105,81.7z"/>
</g>
<g id="boat" class="st0">
	<g class="st1">
		<path class="st2" d="M81.5,64c32.4-1.3,46.5-5.8,46.5-5.8s-8-4.2-19.4-5.8c-15.9-2.2-25.2-1.9-25.2-1.9l-29.1-9.7l-36.8,5.8
			l-1.9,5.8h7.8l-3.9,7.8H9.7L7.8,64C7.8,64,42.7,65.6,81.5,64z M34.9,46.6l19.4-1.9l23.3,7.8c0,0-4.3,2.9-9.7,3.9
			c-5.2,0.9-11.6,0-11.6,0l-7.8-3.9L33,50.4L34.9,46.6z M5.8,67.9c0,0-4.6,10.6-5.6,13.1C0.1,81.3,0,81.4,0,81.4
			c0,0,7.8-5.8,7.8-5.8s4.9,5.8,9.7,5.8c3.9,0,7.8-5.8,7.8-5.8s5.1,5.8,9.7,5.8c5,0,9.7-5.8,9.7-5.8s3.6,5.8,7.8,5.8
			c4.5,0,9.7-5.8,9.7-5.8s3.4,5.8,7.8,5.8c4.4,0,9.7-5.8,9.7-5.8s3.2,5.8,7.8,5.8c4.2,0,9.7-5.8,9.7-5.8l3.1,3.4
			c16.2-5.3,27.9-18.9,27.9-18.9s-8.6,4.4-34.9,5.8C50.7,68.2,5.8,67.9,5.8,67.9z M106.7,83.4c-4.7,0-9.7-5.8-9.7-5.8
			s-5.5,5.8-9.7,5.8c-4.5,0-7.8-5.8-7.8-5.8s-5.3,5.8-9.7,5.8c-4.3,0-7.8-5.8-7.8-5.8s-5.2,5.8-9.7,5.8c-4.2,0-7.8-5.8-7.8-5.8
			s-4.7,5.8-9.7,5.8c-4.6,0-9.7-5.8-9.7-5.8s-3.9,5.8-7.8,5.8c-4.8,0-9.7-5.8-9.7-5.8L0,85.3v1.9h118.3v-3.9l-3.9-5.8
			C114.4,77.6,110.7,83.4,106.7,83.4z"/>
	</g>
</g>
<g id="Volleyball" class="st0">
	<path class="st3" d="M119.1,9v5.9H8.9V9H0v107.1h8.9V71.4h110.1v44.6h8.9V9H119.1z M17.9,65.5H8.9v-8.9h8.9V65.5z M17.9,53.6H8.9
		v-8.9h8.9V53.6z M17.9,41.7H8.9v-8.9h8.9V41.7z M17.9,29.8H8.9v-8.9h8.9V29.8z M32.7,65.5H20.8v-8.9h11.9V65.5z M32.7,53.6H20.8
		v-8.9h11.9V53.6z M32.7,41.7H20.8v-8.9h11.9V41.7z M32.7,29.8H20.8v-8.9h11.9V29.8z M47.6,65.5H35.7v-8.9h11.9V65.5z M47.6,53.6
		H35.7v-8.9h11.9V53.6z M47.6,41.7H35.7v-8.9h11.9V41.7z M47.6,29.8H35.7v-8.9h11.9V29.8z M62.5,65.5H50.6v-8.9h11.9V65.5z
		 M62.5,53.6H50.6v-8.9h11.9V53.6z M62.5,41.7H50.6v-8.9h11.9V41.7z M62.5,29.8H50.6v-8.9h11.9V29.8z M77.4,65.5H65.5v-8.9h11.9
		V65.5z M77.4,53.6H65.5v-8.9h11.9V53.6z M77.4,41.7H65.5v-8.9h11.9V41.7z M77.4,29.8H65.5v-8.9h11.9V29.8z M92.3,65.5H80.4v-8.9
		h11.9V65.5z M92.3,53.6H80.4v-8.9h11.9V53.6z M92.3,41.7H80.4v-8.9h11.9V41.7z M92.3,29.8H80.4v-8.9h11.9V29.8z M107.2,65.5H95.3
		v-8.9h11.9V65.5z M107.2,53.6H95.3v-8.9h11.9V53.6z M107.2,41.7H95.3v-8.9h11.9V41.7z M107.2,29.8H95.3v-8.9h11.9V29.8z
		 M119.1,65.5h-8.9v-8.9h8.9V65.5z M119.1,53.6h-8.9v-8.9h8.9V53.6z M119.1,41.7h-8.9v-8.9h8.9V41.7z M119.1,29.8h-8.9v-8.9h8.9
		V29.8z"/>
	<path class="st3" d="M62.5,77.4c-11.5,0-20.8,9.3-20.8,20.8c0,11.5,9.3,20.8,20.8,20.8c11.5,0,20.8-9.3,20.8-20.8
		C83.3,86.7,74,77.4,62.5,77.4z M51.8,84c1.8,1,5.3,3,7.7,5.3c1.9,1.9,2.9,4.8,3.4,6.2l-6.4,2.7l-9.6-8.7
		C48.2,87.4,49.8,85.5,51.8,84z M44.7,98.2c0-1.9,0.3-3.6,0.8-5.3l11.1,8.3l23.5-10.1l-1.8-2.7L71.1,92c-0.8-0.8-3.3-3.3-5.7-5.7
		c-2.2-2.2-5.8-4.3-7.7-5.3c1.5-0.4,3.1-0.6,4.7-0.6c8.9,0,16.3,6.5,17.6,15.1c-0.8,0.7-4.1,3.6-8.7,5.8c-3.9,1.8-10.4,3-12.9,3.4
		c0.2-2.3,0.9-4.4,1-4.6l-3,1.2c0,0-1.7,4.5,0,8.9c0.9,2.3,3.4,4.6,4.9,5.9C52.1,115.5,44.7,107.7,44.7,98.2z M65.1,115.9
		c-0.9-0.6-3.9-2.7-5.6-5.7l0,0c0,0,7.2-1.2,11.9-3c3.3-1.2,7.5-4.7,8.6-5.7C78.7,108.9,72.7,114.7,65.1,115.9z"/>
</g>
<g id="sleeper" class="st0">
	<g class="st1">
		<path class="st2" d="M57.2,62.8c-1.1-15.6,1.1-17.8-1.3-31.2C53.4,18.2,40.7,6.8,26.3,8.7C11.9,10.6,5,21.2,3.6,35.7
			c0,0-2.6,18.1,1.2,33.3c4.4,17.3,10.3,35.5,10.3,35.5c1.9,14.5,12.4,25.1,26.8,23.2c14.4-1.9,17.6-21.2,17.1-29
			C58.6,91.2,58.4,80.3,57.2,62.8z M53.6,99.5c-0.5,7.9-1,21.3-12.4,22.8c-11.4,1.5-19.1-6.9-20.6-18.4c0,0-5.6-18.9-10.2-34.9
			c-4.4-15.3-1.3-34-1.3-34c2.2-11.4,6.5-19.2,17.9-20.7c11.4-1.5,21.7,6.9,23.3,18.1c1.6,11.1,0.6,15.8,1.4,31.9
			C52.6,81.5,54.1,91.6,53.6,99.5z M122,23.8C118.7,9.6,110.1,0,95.5,0C80.8,0,69.6,13,68.9,26.5c-0.7,13.6,1.8,15.5,2.8,31.1
			c1.1,17.5,2.3,28.4,2.8,35.9c0.5,7.8,6.3,26.5,20.9,26.5c14.7,0,23.7-11.9,23.7-26.5c0,0,3.5-18.9,5.6-36.6
			C126.6,41.4,122,23.8,122,23.8z M119.2,57.7c-2.5,16.5-5.6,35.9-5.6,35.9c0,11.6-6.6,20.9-18.2,20.9c-11.6,0-13.8-13.2-15.4-20.9
			c-1.6-7.8-1.4-18-2.8-35.2c-1.3-16-3-20.5-2.8-31.8c0.2-11.3,9.4-20.9,20.9-20.9c11.6,0,17.3,7.1,21,18.2
			C116.4,23.8,121.6,41.9,119.2,57.7z M99.7,25.2v-5.6h-5.6v5.6c0,0-8.4,3-11.2,16.8c-2.8,14.2,0,39.1,0,39.1h5.6
			c0,0-2.1-23.4,0-36.3c2-12.2,8.4-16.8,8.4-16.8s12.5,14.5,14,27.9c1.3,11.5-5.6,25.1-5.6,25.1h5.6c0,0,4.1-8.7,5.6-19.5
			c0.9-7.1-0.2-11.3-5.6-22.3C105.5,28.1,99.7,25.2,99.7,25.2z M30.9,33.4l-0.7-5.5l-5.5,0.7l0.7,5.5c0,0-5.3,3.7-9.2,15.3
			c-3.8,11.6-4.4,15.9-2.6,22.9C16.5,82.9,21.7,91,21.7,91l5.5-0.7c0,0-8.5-12.6-8.8-24.2c-0.3-13.5,10.1-29.5,10.1-29.5
			s6.8,3.3,10.4,15.2c3.8,12.5,4.8,36.4,4.8,36.4l5.5-0.7c0,0-0.5-25.4-5.1-39.1C39.6,35,30.9,33.4,30.9,33.4z"/>
	</g>
</g>
<g id="umbrella_1_">
	<g>
		<path class="st2" d="M79,79.8l-2.9-3.7l-4.2,7.2l2.9,3.7L79,79.8z M76.8,70.6l-2.9-3.7l-4.2,7.2l2.9,3.7L76.8,70.6z M74.7,61.4
			l-2.9-3.7l-4.2,7.2l2.9,3.7L74.7,61.4z M59,68.7h-9.4l-9.4,18.9H0V97h7.1l-4.7,18.9h4.7L14.2,97h23.6l9.4,18.9h4.7L44.9,97h2.4
			L59,68.7z M63.7,19.2c-0.5,0.1,0-7.1,0-7.1l-9.4,4.7l4.7,4.7c-25.7,7.6-48.5,36.4-47.2,44.8c0.8-0.1,5.3-4.9,9.4-4.7
			c4.1,0.1,10.6,2.9,14.2,2.4c3.5-0.6,6.7-4.6,9.4-4.7c2.7-0.1,6.2,5.5,11.9,4.8c4.4-0.6,10.7-7,14.9-8.2c4.2-1.2,10.9,0.4,15.7-1.3
			c3.8-1.3,8.9-8.5,8.9-8.5s10.5,2.6,14.7-3.3c2.1-3,4.4-6,7.1-7.1c4.9-2,10.1-0.5,10-1.1C127.4,31.5,91,13.3,63.7,19.2z M37.8,54.6
			c0,0-4.4,2.4-6.6,2.4c-2.5,0-5.8-1-5.2-2.4c5.7-15,28.3-28.3,28.3-28.3C48.4,32.7,37.8,54.6,37.8,54.6z M55.7,58.1
			c-3,0.6-6.1-1.1-6.1-1.1s0.4-4.7,1.2-13.4c0.9-9.9,5.9-17.3,5.9-17.3l2.4-2.4l4.7,30.7C63.7,54.6,58.6,57.5,55.7,58.1z M85,49.8
			c-3,1.2-9.4,0-9.4,0L63.7,21.5h2.4c0,0,11.6,5.9,16.8,14.4c4.5,7.4,6.8,9.2,6.8,9.2S87.8,48.7,85,49.8z M106.4,39.1
			c-2.4,1.8-7.2,1.3-7.2,1.3S94,36,92.1,33.3c-7.2-9.6-23.6-11.8-23.6-11.8s26.6-1,37.8,9.4C112.2,36.5,108.7,37.4,106.4,39.1z
			 M83.3,98.3l-2.9-3.7l-4.2,7.2l2.9,3.7L83.3,98.3z M81.2,89.1l-2.9-3.7L74,92.5l2.9,3.7L81.2,89.1z M78.3,111l2.9,3.7l4.2-7.2
			l-2.9-3.7L78.3,111z"/>
	</g>
</g>
<g id="drinks" class="st0">
	<g class="st1">
		<path class="st2" d="M74,18.2L104.2,2l-8.5-2L68.6,14.9l-2.3,11.9H23.8L32.7,128h53.6l8.9-101.2H72.3L74,18.2z M89.3,32.7
			L80.4,122H38.7l-8.9-89.3h35.5l-5.7,29.8H35.7l6,56.6h35.7l6-56.6h-18l5.8-29.8H89.3z M52.1,89.3c-4.1,0-7.4-3.3-7.4-7.4
			c0-4.1,3.3-7.4,7.4-7.4s7.4,3.3,7.4,7.4C59.5,86,56.2,89.3,52.1,89.3z M59.5,104.2c0,3.3-2.7,6-6,6c-3.3,0-6-2.7-6-6s2.7-6,6-6
			C56.9,98.2,59.5,100.9,59.5,104.2z"/>
	</g>
</g>
<g id="google" class="st0">
	<g class="st1">
		<path class="st2" d="M10.4,70.2l1.2,2.1l16.7-9.7l-1.2-2.1L10.4,70.2z M106.3,67.6H99v7.2h7.2V67.6z M22.3,58.1L5.5,67.8l1.2,2.1
			l16.7-9.7L22.3,58.1z M108.7,79.7L94.2,96.6H60.4v7.2H99l16.9-21.7V19.3h-7.2V79.7z M99,82.1c0,0,0-15,0-23.4
			c0-2.5-0.5-5.6-5.4-5.6c-17.6,0-73,0-89.1,0c-4.3,0-4.5,4-4.5,5.3c0,8.4,0,23.6,0,23.6c0,2.7,4.6,7.2,7.2,7.2c0,0,11.4,0,31.6,0
			c3.6,0,6.9-11.3,10.7-11.3c3.2,0,5.7,11.3,8.9,11.3c21.5,0,33.4,0,33.4,0C94.4,89.4,99,84.8,99,82.1z M41.1,75.7
			c0,4.9-3.7,8.9-8.2,8.9H13c-4.5,0-8.2-4-8.2-8.9v-8.9c0-4.9,3.7-8.9,8.2-8.9h19.8c4.5,0,8.2,4,8.2,8.9V75.7z M66.2,84.5
			c-4.5,0-8.2-4-8.2-8.9v-8.9c0-4.9,3.7-8.9,8.2-8.9H86c4.5,0,8.2,4,8.2,8.9v8.9c0,4.9-3.7,8.9-8.2,8.9H66.2z M94.2,67.9L78.4,58
			l-1.1,2.1L93,70L94.2,67.9z M118.3,67.6v7.2h9.7v-7.2H118.3z M70,62.5l15.7,9.9l1.1-2.1l-15.7-9.9L70,62.5z M49.5,91.8
			c-4.7,0-8.5,3.8-8.5,8.5c0,4.7,3.8,8.5,8.5,8.5s8.5-3.8,8.5-8.5C58,95.6,54.2,91.8,49.5,91.8z"/>
	</g>
</g>
<g id="ice_cream" class="st0">
	<g class="st1">
		<path class="st2" d="M32.6,59.7l0,17.1L44,128h39.8l11.4-51.2l0-17.1H32.6z M78.2,122.3H49.7l-1.4-5.7h31.3L78.2,122.3z
			 M80.3,113.8H47.6l-2.8-11.4h38.4L80.3,113.8z M84.6,96.7H43.3l-5-19.9h51.2L84.6,96.7z M89.5,71.1H38.3v-5.7h51.2V71.1z
			 M98.1,51.2c-1.1-5.5-5.7-11.9-11.4-11.4c6.4-15.9-8.5-17.2-8.5-17.1C82.7,11.5,72.3,0,63.9,0s-7.4,6.6-7.4,6.6s4.5-0.9,4.5,2.6
			c0,3.6-8.3,7.5-8.3,7.5S46.4,20,44,25.6c-1.8,4.1,0,7.9,0,11.4c0,0.6-12.9,1-14.2,13.8c0,6,2.8,9,2.8,9s2.2,0,5.7,0
			c0,0-3.9-7.5-2.8-11.4c1.6-5.7,17.1-5.7,17.1-5.7s-4.6-12,0-17.1c0.6-0.7,2.1-1.9,3.8-3.3c0.5-0.4,1-0.8,1.5-1.2
			c3.8-3.1,8.2-7.1,8.9-9.7c0.8-2.8-2.8-5.7-2.8-5.7s7,4,8.5,8.5c1.3,4,0,11.4,0,11.4s7.2,1,8.5,5.7c1.5,5.2,0,11.4,0,11.4
			s10,5,11.4,8.5c1.4,3.6-5.7,8.5-5.7,8.5c5.2,0,8.6,0,8.5,0C95.2,58,98.8,55,98.1,51.2z M70.3,26.8L56,36.2l1.6,2.4l14.3-9.4
			L70.3,26.8z"/>
	</g>
</g>
<g id="ball" class="st0">
	<g class="st1">
		<path class="st2" d="M64,0C28.7,0,0,28.7,0,64c0,35.3,28.7,64,64,64c35.3,0,64-28.6,64-64C128,28.7,99.3,0,64,0z M113.9,35.9
			c-2.1-2.2-4.5-4.4-7.3-6.6C96,21.2,85.3,19.5,80,19.3c-1-2.3-3.2-4.2-6.1-5.7c1.9-1.5,4.5-3,6.9-4.3
			C95,13.6,106.8,23.3,113.9,35.9z M64,6.7c3.8,0,7.5,0.4,11.1,1.1c-1.9,1.4-3.9,2.8-5.5,4.2c-2.2-0.6-4.5-0.9-7-0.9
			c-1,0-2.1,0.1-3.1,0.2c-1.5-1.3-3.4-2.6-5.4-3.7C57.4,7,60.7,6.7,64,6.7z M47.5,9.2c2.1,1,4.4,2.2,6.2,3.4
			c-4.5,1.6-7.8,4.3-8.8,7.6c-5.8,1-15.4,3.5-23.4,9.5c-3,2.2-5.5,4.4-7.6,6.6C21,23.4,33.1,13.5,47.5,9.2z M6.7,64
			c0-4,0.4-7.9,1.2-11.6c3.2-6,8.3-13,16.3-19.3c6.6-5.1,15.2-7.8,20.5-9.1c0.6,2.3,2.3,4.3,4.7,5.9C41.9,40.1,27.8,61.4,27.8,79
			c0,13.7,3.8,26.2,7,34.3C18,103.3,6.7,85,6.7,64z M64,121.3c-7.8,0-15.3-1.6-22.1-4.4c-3.3-7.6-8.5-22.1-8.5-38.2
			c0-16.4,12.6-36.1,20.2-46.7c2.7,0.9,5.7,1.5,9,1.5c4.4,0,8.4-1,11.6-2.6c7.6,9.7,20.4,28.4,20.4,45c0,16.6-5.5,32.9-8.8,41.1
			C79.1,119.7,71.7,121.3,64,121.3z M92.7,113.5c3.2-8.8,7.4-22.9,7.4-37.3c0-18.3-15-38.8-22.4-47.9c1.7-1.6,2.7-3.4,2.9-5.4
			C86,24,96,26.6,103.8,32.8c7.9,6.3,13,13.4,16.3,19.4c0.8,3.8,1.2,7.8,1.2,11.8C121.3,85.1,109.8,103.6,92.7,113.5z"/>
	</g>
</g>
<g id="tree" class="st0">
	<g class="st1">
		<path class="st2" d="M108,28.3c-7.6-4.4-17.3-1.8-21.7,5.8c-4.4,7.6-1.8,17.3,5.8,21.7c7.6,4.4,17.3,1.8,21.7-5.8
			S115.6,32.7,108,28.3z M110.4,48c-3.3,5.7-10.6,7.6-16.3,4.4c-5.7-3.3-7.6-10.6-4.4-16.3c3.3-5.7,10.6-7.6,16.3-4.4
			C111.7,35.1,113.6,42.3,110.4,48z M38.3,77c0,2.6,0.2,5.2,0.4,7.7h8c-0.3-2.6-0.4-5.2-0.5-7.9h-7.9C38.3,76.9,38.3,76.9,38.3,77z
			 M49.6,100.7c-0.6-2.4-1.7-6.7-2.5-12h-8c0.8,5.3,1.9,9.7,2.5,12c-0.4,0-0.9,0.1-1.3,0.1c-0.6-1.6-1.8-5.1-3.3-8.8l-4.1,1.8
			c1.3,3.1,2.4,6,2.9,7.5c-9.9,1.6-15.4,5.7-15.4,11.1c8.9,0,7.4,0,23.8,0c16.4,0,21.7,0,27.8,0C72,105.9,63.9,101.3,49.6,100.7z
			 M26.1,80.8c0.8,1.1,1.6,2.2,2.3,3.5l4.1-2c-0.7-1.3-1.6-2.5-2.4-3.6L26.1,80.8z M128,36.3l-0.5-1.9l-9.6,2.6l0.5,1.9L128,36.3z
			 M24.6,78.9l4-2.1c-3-3.5-5.8-5.9-5.8-5.9s2.4-0.9,5.6-1.6c4-1,8.5-3.6,8.6-3.2c0,0-1.4-1.6-4.6-1.4c-4.5,0.3-6.1,0.6-6.1,0.6
			l6-8.2c0,0-3.5,1.2-6.6,2.2c-2.9,0.9-3.7,5.1-3.7,5.1s-0.8-2-3.9-4.2c-3.3-2.4-9.5-3.5-9.5-3.5s3.9,3.8,5.7,6.5
			c1,1.5,0.4,2.7,0.4,2.7s-3.3-0.4-5.4,0.1C5.9,66.5,3,68.2,3,68.2l6.2,1.4L0,76.6c0,0,2.6,0.5,5.4-0.1c4.2-0.9,8.3-3.4,8.3-3.4
			s-1.3,4.1-1.7,7.5c-0.2,2,1.2,4.1,1.2,4.1s2.2-2.6,3.6-5.6c1.4-2.8,2-6.1,2-6.1S21.6,75.4,24.6,78.9z M115.7,19l-1.7-1l-5,8.6
			l1.7,1L115.7,19z M36.1,89.6c-0.7-1.7-1.5-3.4-2.2-4.9l-4.1,2c0.8,1.6,1.5,3.3,2.3,4.9L36.1,89.6z M76.7,30.9l8.6,5l1-1.7l-8.6-5
			L76.7,30.9z M116.2,53.7l8.6,5l1-1.7l-8.6-5L116.2,53.7z M104.6,60.1l2.6,9.6l1.9-0.5l-2.6-9.6L104.6,60.1z M47.4,64.9h-7.9
			c-0.5,2.5-0.9,5.2-1.1,7.9h7.9C46.5,70.1,46.9,67.4,47.4,64.9z M72,37.1c-4-1.8-11.9,0-11.9,0s-0.1-2.5,2-4
			c3.6-2.4,10.4-4.3,10.4-4.3s-6.6-3.2-12.4-1.6c-3.7,1-7.9,4-7.9,4s-1.8-6.2-6-7.9c-5.2-2.1-19.8,0-19.8,0s8.1,1.9,13.9,6
			c4.7,3.3,2,4,2,4s-6.7-1-11.9,0c-5.6,1-11.9,9.9-11.9,9.9s7.4-2.5,11.9-2c3.3,0.4,4,2,4,2s-1.7,0.4-7.9,4c-4.9,2.8-4,7.9-4,7.9
			c-0.1-0.7,5-2.3,11.9-4c5.5-1.3,9.9-2,9.9-2s-2.1,5-3.8,11.9h7.9C50,54,52.1,49,52.1,49s3.6,0.7,7.9,4c4.6,3.5,7.9,7.9,7.9,7.9
			s2-7.1,0-9.9c-3.3-4.8-7.9-6-7.9-6s0.6-0.8,7.9-2c3.2-0.5,11.9,0,11.9,0S75.9,38.9,72,37.1z M73.8,48.8l0.5,1.9l9.6-2.6l-0.5-1.9
			L73.8,48.8z M86.1,66.1l1.7,1l5-8.6l-1.7-1L86.1,66.1z M97.2,25.1l-2.6-9.6L92.8,16l2.6,9.6L97.2,25.1z"/>
	</g>
</g>
<g id="sign_x5F_direction" class="st0">
	<g class="st1">
		<path class="st2" d="M103.3,43.6l17.5-14.5l-17.5-14.5H68.4V0h-8.7v14.5H39.3v29.1h20.4v8.7H24.7L7.3,66.9l17.5,14.5h34.9v37.8
			H30.5v8.7h66.9v-8.7H68.4V81.4h20.4V52.4H68.4v-8.7H103.3z M82.9,58.2v17.4H27.6l-11.5-8.7l11.5-8.7H82.9z M45.1,37.8V20.4h55.3
			l11.5,8.7l-11.5,8.7H45.1z M100.4,26.2H50.9V32h49.5V26.2z M27.6,69.8h49.5V64H27.6V69.8z"/>
	</g>
</g>
<g id="bag" class="st0">
	<g class="st1">
		<path class="st2" d="M122.6,38.1H87.1V13.6H40.9v24.5H5.4c-3,0-5.4,2.4-5.4,5.4v65.3c0,3,2.4,5.4,5.4,5.4h117.1
			c3,0,5.4-2.4,5.4-5.4V43.6C128,40.6,125.6,38.1,122.6,38.1z M46.3,24.5h35.4v13.6H46.3V24.5z M19.1,108.9H8.2
			c-1.5,0-2.7-1.2-2.7-2.7V46.3c0-1.5,1.2-2.7,2.7-2.7h10.9V108.9z M100.8,108.9H27.2V43.6h73.5V108.9z M122.6,106.2
			c0,1.5-1.2,2.7-2.7,2.7h-10.9V43.6h10.9c1.5,0,2.7,1.2,2.7,2.7V106.2z M58.3,65.5l-2.7-13.3l-24,4.9l2.7,13.3L58.3,65.5z
			 M83.1,100.8c6.8,0,12.3-5.5,12.3-12.3c0-6.8-5.5-12.3-12.3-12.3s-12.3,5.5-12.3,12.3C70.8,95.3,76.3,100.8,83.1,100.8z"/>
	</g>
</g>
</svg>
