<?xml version="1.0" encoding="UTF-8"?>
<!DOCTYPE svg PUBLIC "-//W3C//DTD SVG 1.1//EN" "http://www.w3.org/Graphics/SVG/1.1/DTD/svg11.dtd">
<!-- Creator: CorelDRAW -->
<svg xmlns="http://www.w3.org/2000/svg" xml:space="preserve" width="2048px" height="2048px" style="shape-rendering:geometricPrecision; text-rendering:geometricPrecision; image-rendering:optimizeQuality; fill-rule:evenodd; clip-rule:evenodd"
viewBox="0 0 2048 2048"
 xmlns:xlink="http://www.w3.org/1999/xlink">
 <defs>
  <style type="text/css">
   <![CDATA[
    .fil0 {fill:none}
    .fil1 {fill:#212121;fill-rule:nonzero}
   ]]>
  </style>
 </defs>
 <g id="Layer_x0020_1">
  <metadata id="CorelCorpID_0Corel-Layer"/>
  <rect class="fil0" width="2048" height="2048"/>
  <g id="_445077192">
   <rect id="_445069968" class="fil0" x="255.996" y="255.996" width="1536" height="1536"/>
   <path id="_445079832" class="fil1" d="M360.399 1696.12l292.069 -568.851 -0.0484252 -0.0248032c9.7382,-19.2295 24.1984,-36.6733 41.2949,-49.1469 17.2878,-12.6118 37.291,-20.3244 58.265,-20.3244l671.8 0 0 -95.7284c0,-12.2386 -4.73032,-23.3008 -12.4736,-31.6016 -8.10119,-8.68465 -19.4103,-14.465 -32.0729,-15.6284l5.74961 -63.5008c28.839,2.6504 54.6012,15.8256 73.0737,35.6292 18.4536,19.7811 29.7248,46.0748 29.7248,75.1016l0 95.7284 256.906 0 0.250394 0.125197c13.839,0.126378 27.1831,3.62481 38.7898,9.96379 11.798,6.44056 21.8835,15.8291 29.0504,27.6449 7.1256,11.7508 11.2299,25.6477 11.0894,41.1154 -0.134646,14.8323 -4.16339,30.9378 -13.2662,47.6067l-0.00708662 -0.00354331 -271.256 506.561 0.0448819 0.0236221c-9.35434,17.739 -26.7567,35.5016 -46.3713,48.2256 -19.1953,12.4512 -41.4414,20.8075 -61.8945,20.8075l0 -0.125197 -1088.43 0.155906 0 0.125197c-15.639,0 -30.9579,-3.06733 -45.1713,-8.86418 -14.2063,-5.79213 -27.3154,-14.374 -38.5429,-25.402 -11.211,-11.0646 -19.9547,-24.0851 -25.8815,-38.2252 -5.94449,-14.1803 -9.08977,-29.4544 -9.08977,-44.9859l0.125197 0 0.157087 -821.168 -0.125197 0c0,-32.4142 13.3725,-61.8485 35.0032,-83.1981 21.4536,-21.1748 51.0095,-34.2874 83.6044,-34.2874l0 0.125197 79.552 -0.146457 0 63.7512 -79.552 0.146457 0 0.125197c-15.248,0 -28.9772,6.0378 -38.8548,15.7866 -9.73347,9.60709 -15.7512,22.9394 -15.7512,37.6973l-0.125197 0 -0.157087 821.168 0.125197 0c0,7.1504 1.41496,14.1071 4.08898,20.4851 2.68465,6.4063 6.61536,12.2764 11.6303,17.2252 5.09528,5.00552 11.1496,8.94331 17.7933,11.6516 6.59528,2.68937 13.7752,4.11378 21.1713,4.11378l0 0.125197 17.7118 -0.00236221zm348.896 -540l-277.251 539.99 999.074 -0.142913 0 -0.125197c7.72205,0 17.6386,-4.13859 27.1441,-10.3051 10.9736,-7.11851 20.2394,-16.1634 24.6225,-24.476l0.124016 -0.125197 271.467 -506.957 0.125197 -0.250394c3.79843,-6.95552 5.47205,-12.8327 5.51575,-17.6067 0.0283465,-3.10276 -0.654331,-5.65985 -1.83898,-7.61457 -1.14685,-1.89095 -2.9067,-3.47362 -5.0504,-4.6441 -2.50866,-1.37008 -5.44252,-2.1437 -8.53938,-2.20984l0 0.121654 -288.907 0 -32.0008 0 -671.8 0c-6.92481,0 -14.1106,2.96929 -20.765,7.82363 -8.7815,6.40749 -16.4209,15.7854 -21.7949,26.3965l-0.125197 0.125197z"/>
   <path id="_445069632" class="fil1" d="M448.125 1395.7l0.00826772 -1012.59 -0.125197 0c0,-27.5764 11.5606,-55.6595 29.8607,-76.3796 18.391,-20.8217 43.8355,-34.7823 72.0603,-34.7823l551.995 0c8.78387,0 17.5394,1.9441 25.7138,5.58308 7.91694,3.52087 15.1524,8.7378 21.1725,15.3957l178.251 197.126 0.0543308 -0.0507874c5.40355,5.87717 9.60355,12.7311 12.4677,20.1579 2.90433,7.53426 4.42323,15.4134 4.42323,23.2311l-0.125197 0 -0.00236221 482.588 -63.7512 0 0.00236221 -482.588 -0.125197 0c0,-0.220866 0.0767717,-0.159449 0.0897638,-0.180709l-0.105118 -0.207874 -178.185 -197.053 -551.875 0c-8.74016,0 -17.4213,5.23111 -24.3106,13.0311 -8.33977,9.44292 -13.6087,22.0028 -13.6087,34.1292l-0.125197 0 -0.00826772 1012.59 -63.7512 0zm653.516 -1059.93l-0.00354331 0.00826772c-0.00708662,-0.0165354 -0.141732,-0.168898 -0.0791339,-0.100394l0.0826772 0.0921261zm-0.00354331 0.00826772l-0.0011811 0.00236221c-0.109843,-0.0484252 -0.0531496,-0.0200788 0.0377953,0.0259843l-0.0330709 -0.0366142 -0.00354331 0.00826772z"/>
   <path id="_445068864" class="fil1" d="M672.001 575.998c-17.6728,0 -32.0008,14.328 -32.0008,32.0008 0,17.6728 14.328,32.0008 32.0008,32.0008l448.001 0c17.6728,0 32.0008,-14.328 32.0008,-32.0008 0,-17.6728 -14.328,-32.0008 -32.0008,-32.0008l-448.001 0z"/>
   <path id="_445079376" class="fil1" d="M672.001 736.001c-17.6728,0 -32.0008,14.328 -32.0008,32.0008 0,17.6728 14.328,32.0008 32.0008,32.0008l448.001 0c17.6728,0 32.0008,-14.328 32.0008,-32.0008 0,-17.6728 -14.328,-32.0008 -32.0008,-32.0008l-448.001 0z"/>
   <path id="_445068984" class="fil1" d="M672.001 896.004c-17.6728,0 -32.0008,14.328 -32.0008,32.0008 0,17.6728 14.328,32.0008 32.0008,32.0008l448.001 0c17.6728,0 32.0008,-14.328 32.0008,-32.0008 0,-17.6728 -14.328,-32.0008 -32.0008,-32.0008l-448.001 0z"/>
  </g>
 </g>
</svg>
